<?xml version="1.0" encoding="UTF-8"?>
<svg version="1.1" xmlns="http://www.w3.org/2000/svg" width="711" height="711">
<path d="M0 0 C1.59275253 -0.01052147 1.59275253 -0.01052147 3.21768188 -0.02125549 C6.62433163 -0.03865333 10.03080746 -0.04510751 13.4375 -0.046875 C15.18459259 -0.04788712 15.18459259 -0.04788712 16.96697998 -0.04891968 C34.30550928 -0.03295418 51.29380107 0.36888445 68.4375 3.203125 C69.50355469 3.37473145 70.56960938 3.54633789 71.66796875 3.72314453 C115.12108153 10.91604885 157.54469718 25.63550009 195.4375 48.203125 C196.22237793 48.67041016 197.00725586 49.13769531 197.81591797 49.61914062 C217.16058232 61.25822628 235.30364639 74.75676479 251.984375 89.96875 C253.58771007 91.42911251 255.20193741 92.8776286 256.828125 94.3125 C261.74082486 98.65469278 266.47895497 103.14161813 271.125 107.765625 C271.64747314 108.28350586 272.16994629 108.80138672 272.70825195 109.33496094 C276.8152537 113.45809895 280.650442 117.7860397 284.4375 122.203125 C284.97866455 122.83226807 285.5198291 123.46141113 286.07739258 124.10961914 C329.31196796 174.74724085 357.11553646 236.51308887 367.4375 302.203125 C367.61045593 303.28669281 367.78341187 304.37026062 367.96160889 305.48666382 C369.40560751 315.28687911 369.76419129 324.88500669 369.7734375 334.78125 C369.77989617 336.44390974 369.78662653 338.10656845 369.79360962 339.76922607 C369.80549369 343.23842997 369.8093002 346.70753504 369.80810547 350.17675781 C369.80794383 353.67306408 369.82170187 357.16884132 369.84912109 360.66503906 C370.0105939 381.57780806 369.43192637 401.59347629 365.4375 422.203125 C365.18266794 423.59800534 364.92850074 424.99300748 364.67529297 426.38818359 C364.07308957 429.53203299 363.40817013 432.64707931 362.6875 435.765625 C362.43709961 436.86310059 362.18669922 437.96057617 361.92871094 439.09130859 C345.15034002 510.4962225 304.58110839 580.27790492 247.4375 627.203125 C246.90640625 627.6480127 246.3753125 628.09290039 245.828125 628.55126953 C187.94010542 677.023209 112.1687176 711.4674305 35.76171875 711.5390625 C34.10048825 711.5455229 32.43925879 711.55225336 30.7780304 711.55923462 C27.31480282 711.57110854 23.85167418 711.57492619 20.38842773 711.57373047 C16.89895722 711.57356873 13.41001623 711.58734509 9.9206543 711.61474609 C-10.97421551 711.77627513 -30.97022678 711.19263413 -51.5625 707.203125 C-52.95746468 706.94830907 -54.35254854 706.69414384 -55.74780273 706.44091797 C-58.89157088 705.83868744 -62.00655673 705.17391206 -65.125 704.453125 C-66.22392578 704.20199951 -67.32285156 703.95087402 -68.45507812 703.69213867 C-125.88168946 690.18312621 -179.64955525 662.07665284 -223.24609375 622.30078125 C-225.23774817 620.49720887 -227.26271857 618.75206404 -229.3125 617.015625 C-238.35913169 609.12976276 -246.85585187 600.39580843 -254.5625 591.203125 C-255.34367187 590.31109375 -256.12484375 589.4190625 -256.9296875 588.5 C-277.40821504 564.99675295 -294.06870476 538.36857005 -307.54882812 510.3046875 C-308.22152824 508.91003369 -308.9024663 507.51932181 -309.59179688 506.1328125 C-329.96475782 465.00750587 -341.56233751 416.38031541 -341.765625 370.60546875 C-341.77263931 369.54094482 -341.77965363 368.4764209 -341.78688049 367.37963867 C-341.80427339 363.96659049 -341.81073207 360.55371586 -341.8125 357.140625 C-341.81317474 355.97395294 -341.81384949 354.80728088 -341.81454468 353.60525513 C-341.79890456 336.60035227 -341.38799234 320.00722381 -338.5625 303.203125 C-338.30509033 301.57890625 -338.30509033 301.57890625 -338.04248047 299.921875 C-332.46716498 265.16459097 -322.11177359 231.78615266 -306.5625 200.203125 C-306.05702637 199.17300293 -305.55155273 198.14288086 -305.03076172 197.08154297 C-294.25957102 175.32084932 -281.75917173 155.14345525 -266.5625 136.203125 C-266.13598145 135.66623047 -265.70946289 135.12933594 -265.27001953 134.57617188 C-260.64490169 128.75959366 -255.81419269 123.15937972 -250.80859375 117.66796875 C-249.31070488 116.02419853 -247.82366833 114.37047344 -246.34765625 112.70703125 C-238.59600017 103.97449777 -230.47109573 95.75436901 -221.5625 88.203125 C-220.63050781 87.39359375 -219.69851562 86.5840625 -218.73828125 85.75 C-205.7682344 74.53960579 -192.01984418 64.41169844 -177.5625 55.203125 C-176.98773926 54.83654785 -176.41297852 54.4699707 -175.82080078 54.09228516 C-164.14725911 46.7189997 -151.89716782 40.38707685 -139.5625 34.203125 C-138.70366211 33.7685498 -137.84482422 33.33397461 -136.95996094 32.88623047 C-95.49296386 12.15273193 -46.38180081 0.20664526 0 0 Z M-35.5625 33.203125 C-36.59246094 33.36941406 -37.62242187 33.53570312 -38.68359375 33.70703125 C-88.31666763 41.82880698 -135.9746364 61.42652712 -176.5625 91.203125 C-177.12437012 91.61481934 -177.68624023 92.02651367 -178.26513672 92.45068359 C-197.51681599 106.67675622 -216.01482404 122.9865865 -231.5625 141.203125 C-232.36300781 142.11449219 -233.16351563 143.02585937 -233.98828125 143.96484375 C-280.78848771 197.64946596 -311.41959642 271.17908082 -311.765625 342.86328125 C-311.77263931 343.84303421 -311.77965363 344.82278717 -311.78688049 345.83222961 C-311.80428305 348.9767421 -311.81073296 352.12106612 -311.8125 355.265625 C-311.81317474 356.3413678 -311.81384949 357.4171106 -311.81454468 358.52545166 C-311.79848867 374.63278335 -311.29625138 390.29570556 -308.5625 406.203125 C-308.39621094 407.23308594 -308.22992188 408.26304687 -308.05859375 409.32421875 C-298.10680949 470.14067809 -270.80276199 527.39429005 -229.5625 573.203125 C-228.81637451 574.03384521 -228.81637451 574.03384521 -228.05517578 574.88134766 C-218.7561445 585.19003926 -209.29837118 595.26448111 -198.40234375 603.9140625 C-195.96708333 605.87700969 -193.62177086 607.91041116 -191.28173828 609.98461914 C-176.87802754 622.6182851 -160.29149555 632.94156515 -143.5625 642.203125 C-142.79212402 642.63544434 -142.02174805 643.06776367 -141.22802734 643.51318359 C-95.93194716 668.77253771 -43.43415094 682.47971687 8.4375 683.203125 C9.7834021 683.22294434 9.7834021 683.22294434 11.15649414 683.24316406 C91.42102571 683.85369212 170.5734141 654.86733348 230.4375 601.203125 C231.19571045 600.52950928 231.19571045 600.52950928 231.96923828 599.84228516 C243.11421349 589.92075964 254.06192114 579.61257453 263.31640625 567.87890625 C265.51412214 565.1064654 267.81380947 562.443909 270.125 559.765625 C315.31837065 505.35196853 340.45380583 432.73101584 341.4375 362.203125 C341.45731934 360.85831055 341.45731934 360.85831055 341.47753906 359.48632812 C342.02828873 287.12261075 318.54684803 214.06585483 273.4375 157.203125 C272.28507813 155.7490625 272.28507813 155.7490625 271.109375 154.265625 C268.91578861 151.55125911 266.6839517 148.87386437 264.4375 146.203125 C263.55075808 145.12892537 262.66404058 144.0547056 261.77734375 142.98046875 C256.19681918 136.28364828 250.34857961 129.93388787 244.1875 123.765625 C243.53837646 123.1156958 242.88925293 122.4657666 242.22045898 121.79614258 C221.52339486 101.33549625 197.75059486 84.42114932 172.4375 70.203125 C171.63199707 69.74808594 170.82649414 69.29304688 169.99658203 68.82421875 C127.56141495 45.05697784 76.62003774 30.23576978 27.77734375 30 C26.79759079 29.99298569 25.81783783 29.98597137 24.80839539 29.97874451 C21.6638829 29.96134195 18.51955888 29.95489204 15.375 29.953125 C14.2992572 29.95245026 13.2235144 29.95177551 12.11517334 29.95108032 C-3.99215835 29.96713633 -19.65508056 30.46937362 -35.5625 33.203125 Z " fill="#F33537" transform="translate(341.5625,-0.203125)"/>
</svg>
