<?xml version="1.0" standalone="no"?>
<!DOCTYPE svg PUBLIC "-//W3C//DTD SVG 20010904//EN"
 "http://www.w3.org/TR/2001/REC-SVG-20010904/DTD/svg10.dtd">
<svg version="1.0" xmlns="http://www.w3.org/2000/svg"
 width="148.000000pt" height="148.000000pt" viewBox="0 0 148.000000 148.000000"
 preserveAspectRatio="xMidYMid meet">

<g transform="translate(0.000000,148.000000) scale(0.100000,-0.100000)"
fill="#000000" stroke="none">
<path d="M490 1430 c-14 -6 -31 -22 -37 -38 -10 -21 -26 -31 -73 -46 -33 -11
-60 -23 -60 -27 0 -4 -9 -11 -20 -14 -11 -3 -20 -12 -20 -20 0 -7 -11 -35 -24
-62 -13 -26 -29 -62 -35 -78 -6 -17 -25 -44 -41 -62 l-30 -32 21 -68 c11 -37
25 -83 31 -101 5 -18 11 -51 13 -73 4 -35 1 -45 -20 -61 -56 -44 -16 -190 74
-269 28 -25 54 -39 71 -39 22 0 34 -10 60 -50 35 -55 78 -95 112 -106 20 -6
16 -9 -29 -29 -28 -13 -66 -26 -84 -30 -70 -13 -79 -23 -79 -84 0 -40 7 -68
23 -96 l23 -40 412 -2 c378 -2 436 1 402 22 -6 4 -4 17 5 35 8 16 15 52 15 79
0 57 -8 65 -80 75 -25 4 -71 19 -104 35 l-59 28 47 27 c25 15 46 31 46 37 0 6
-5 7 -12 3 -7 -4 -8 -3 -4 5 4 6 12 9 17 5 16 -10 38 28 33 56 -4 22 -3 22 5
5 8 -19 9 -18 20 8 14 36 14 44 -1 50 -10 4 -9 6 1 6 17 1 36 24 63 79 16 33
25 41 39 37 15 -5 17 -1 13 27 -4 27 0 36 21 51 20 14 29 16 40 7 15 -13 30 3
19 21 -6 11 -32 9 -66 -6 -26 -10 -23 18 7 68 20 35 26 65 36 177 l12 136 -49
84 c-47 83 -100 144 -115 134 -4 -2 -10 4 -14 15 -5 18 -103 74 -122 70 -4 -1
-34 10 -65 24 -36 17 -73 26 -100 25 -24 0 -104 2 -178 5 -82 4 -145 3 -160
-3z m365 -272 c27 -15 53 -21 95 -21 51 1 63 -3 106 -36 l49 -37 0 -60 c0 -44
5 -67 20 -88 49 -70 55 -83 53 -111 -3 -26 -8 -30 -35 -33 -24 -2 -33 1 -38
17 -7 24 -59 41 -122 41 -24 0 -43 4 -43 9 0 15 63 22 99 11 46 -13 50 -6 7
14 -52 24 -166 22 -200 -5 -14 -11 -24 -24 -21 -29 2 -4 -8 -20 -23 -36 -23
-24 -36 -29 -80 -30 -41 0 -53 3 -57 17 -3 9 -12 20 -20 22 -8 4 -11 14 -8 26
12 46 -107 70 -207 41 -19 -6 -35 -10 -36 -10 -1 0 1 19 3 43 3 26 -1 53 -10
71 -26 48 9 100 74 110 22 4 48 11 57 16 54 30 133 60 142 55 20 -12 87 -7
116 8 37 21 36 21 79 -5z m-338 -310 l28 -11 -45 -8 c-66 -11 -92 -11 -85 2 7
11 42 27 62 28 6 1 24 -4 40 -11z m23 -58 c11 -7 3 -10 -30 -10 -55 0 -62 -5
-89 -52 -26 -47 -5 -52 24 -6 32 51 108 56 142 11 7 -9 15 -14 18 -12 10 10
-8 47 -28 58 -20 10 -19 11 8 6 61 -12 78 -65 53 -160 -16 -61 -46 -87 -105
-92 -71 -7 -130 11 -148 47 -18 35 -20 135 -2 170 19 37 121 63 157 40z m522
-11 c37 -20 49 -104 26 -181 -18 -59 -42 -71 -142 -67 -100 5 -99 -9 0 -20 64
-8 65 -8 19 -9 -54 -1 -120 17 -120 33 -1 6 -10 25 -22 43 -42 68 -37 168 10
194 51 28 183 31 229 7z m-312 -29 c0 -5 -5 -10 -11 -10 -5 0 -7 -4 -4 -10 3
-5 -1 -10 -9 -10 -19 0 -21 26 -3 33 20 9 27 8 27 -3z m27 -130 c43 -110 73
-130 191 -130 69 0 81 3 99 23 28 30 50 75 64 130 17 68 26 57 18 -20 -10 -96
-18 -121 -40 -128 -21 -7 -26 -40 -6 -49 6 -3 2 -3 -10 0 -23 5 -29 -6 -23
-46 1 -8 -1 -12 -5 -9 -7 8 -55 -37 -55 -51 0 -5 -8 -6 -17 -3 -13 5 -15 2
-10 -11 6 -14 3 -16 -13 -11 -11 4 -20 2 -20 -4 0 -6 -9 -11 -20 -11 -11 0
-23 -7 -26 -15 -4 -8 -10 -12 -15 -9 -5 3 -9 1 -9 -4 0 -13 -71 -32 -116 -31
-58 0 -92 17 -181 89 -73 58 -110 101 -105 123 1 4 -3 7 -9 7 -8 0 -8 4 0 14
6 7 37 16 67 18 52 4 60 9 95 49 21 24 39 47 39 51 0 3 9 27 20 53 29 67 53
60 87 -25z m-239 -117 c-16 -2 -40 -2 -55 0 -16 2 -3 4 27 4 30 0 43 -2 28 -4z
m443 -362 c-26 -47 -99 -89 -172 -98 -59 -7 -64 6 -12 31 21 10 54 31 74 46
27 22 39 26 47 18 9 -9 12 -5 12 18 0 42 10 48 36 23 17 -16 21 -26 15 -38z"/>
<path d="M508 743 c6 -2 12 -9 12 -14 0 -14 -28 -11 -33 4 -8 18 -27 -12 -27
-44 0 -47 61 -78 89 -46 6 8 14 29 17 47 8 37 -13 61 -50 59 -12 0 -15 -3 -8
-6z m21 -100 c2 -2 -3 -3 -12 -3 -9 0 -22 10 -28 23 l-12 22 24 -20 c13 -11
26 -21 28 -22z"/>
<path d="M620 706 c0 -8 4 -17 8 -20 4 -2 8 4 8 15 0 10 -4 19 -8 19 -4 0 -8
-6 -8 -14z"/>
<path d="M874 768 c-15 -7 -20 -17 -17 -32 l5 -23 23 23 c31 31 92 33 123 4
12 -12 22 -27 22 -35 0 -8 5 -15 11 -15 17 0 1 53 -23 73 -23 19 -108 23 -144
5z"/>
<path d="M907 733 c-12 -11 -8 -78 5 -91 17 -17 63 -15 78 4 14 16 18 69 7 81
-4 4 -13 1 -19 -5 -14 -14 -38 -16 -38 -3 0 5 8 12 18 14 9 3 3 5 -14 6 -17 0
-34 -2 -37 -6z"/>
<path d="M593 423 c20 -2 54 -2 75 0 20 2 3 4 -38 4 -41 0 -58 -2 -37 -4z"/>
<path d="M738 423 c12 -2 32 -2 45 0 12 2 2 4 -23 4 -25 0 -35 -2 -22 -4z"/>
<path d="M285 71 c-3 -5 -1 -12 4 -15 5 -3 11 1 15 9 6 16 -9 21 -19 6z"/>
</g>
</svg>
